<svg viewBox="0 0 132 100" xmlns="http://www.w3.org/2000/svg">
    <path d="M107.4,62.2c-3.2,0-5.8,2.6-5.8,5.8s2.6,5.8,5.8,5.8s5.8-2.6,5.8-5.8S110.6,62.2,107.4,62.2z" fill="#D2691E"/>
    <path d="M113.2,73.8H20.6c-1.4,0-2.6,1.2-2.6,2.6v10.4c0,1.4,1.2,2.6,2.6,2.6h92.6c1.4,0,2.6-1.2,2.6-2.6V76.4 C115.8,75,114.6,73.8,113.2,73.8z" fill="#8B4513"/>
    <path d="M66.6,12.7L66.6,12.7l-0.2,55.1h-2.6V12.7c0-1.4,1.2-2.6,2.6-2.6l0,0C65.4,10.1,66.6,11.3,66.6,12.7z" fill="#8B4513"/>
    <path d="M61.4,15.3c-11.4,5.2-18.1,10.4-20.7,12.9c7.8,2.6,15.5,5.2,20.7,5.2V15.3z" fill="#F5F5DC"/>
    <path d="M66.6,15.3v18.1c5.2,0,12.9-2.6,20.7-5.2C82.1,25.7,75.4,20.5,66.6,15.3z" fill="#FFF8DC"/>
</svg>
